<?xml version="1.0" encoding="utf-8"?>
<svg width="514px" height="514px" viewBox="0 0 514 514" version="1.1" xmlns:xlink="http://www.w3.org/1999/xlink" xmlns="http://www.w3.org/2000/svg">
  <g id="Icon" transform="translate(1 1)">
    <path d="M512 0L512 0L512 512L0 512L0 0L512 0Z" id="Icon" fill="none" stroke="none" />
    <path d="M0 0L512 0L512 512L0 512L0 0Z" id="Background-Flat" fill="#05FA87" fill-rule="evenodd" stroke="none" />
    <g id="scoreboard" transform="translate(76 98)">
      <path d="M127.5 2.84217e-14L37.5 2.84217e-14C16.9482 2.84217e-14 0 16.7999 0 37.5L0 185.999C0 206.7 16.9482 223.499 37.5 223.499L127.5 223.499C148.198 223.499 165 206.7 165 185.999L165 37.5C165 16.7999 148.198 5.50671e-14 127.5 5.50671e-14L127.5 2.84217e-14ZM97.5 142.799C97.5 151.049 90.9009 157.799 82.5 157.799C74.2493 157.799 67.5 151.049 67.5 142.799L67.5 95.7001L63.4497 95.7001C55.199 95.7001 48.4497 88.9499 48.4497 80.7001C48.4497 72.2992 55.199 65.7001 63.4497 65.7001L82.5 65.7001C90.9009 65.7001 97.5 72.2992 97.5 80.7001L97.5 142.799Z" id="Shape" fill="#340D39" stroke="none" />
      <path d="M322.5 2.84217e-14L232.5 2.84217e-14C211.948 2.84217e-14 195 16.7999 195 37.5L195 185.999C195 206.7 211.948 223.499 232.5 223.499L322.5 223.499C343.198 223.499 360 206.7 360 185.999L360 37.5C360 16.7999 343.198 5.50671e-14 322.5 5.50671e-14L322.5 2.84217e-14ZM295.649 142.799C295.649 151.049 289.05 157.799 280.649 157.799C272.399 157.799 265.649 151.049 265.649 142.799L265.649 95.7001L261.599 95.7001C253.348 95.7001 246.599 88.9499 246.599 80.7001C246.599 72.2992 253.348 65.7001 261.599 65.7001L280.649 65.7001C289.05 65.7001 295.649 72.2992 295.649 80.7001L295.649 142.799Z" id="Shape" fill="#340D39" stroke="none" />
    </g>
    <g id="happy" transform="translate(145.80013 374.69955)">
      <g id="g810" transform="matrix(1 2.1456883E-07 2.1456883E-07 -1 -6.880513E-06 45.56753)">
        <g id="g812" transform="matrix(1 0 0 1 -6.224477E-14 5.684342E-14)">
          <g id="g814-Clipped" transform="matrix(1 0 0 1 -6.224477E-14 0)">
            <g id="g814" transform="matrix(1 0 0 1 -6.224477E-14 0)">
              <g id="g824" transform="matrix(1 0 0 1 -6.224477E-14 0)">
                <path d="M0 45.5676L0.00912863 45.5676C60.7567 -15.1892 159.252 -15.1892 220 45.5676" id="path826" fill="none" fill-rule="evenodd" stroke="#340D39" stroke-width="40" stroke-linecap="round" stroke-linejoin="round" />
              </g>
            </g>
          </g>
        </g>
      </g>
    </g>
  </g>
</svg>